<svg xmlns="http://www.w3.org/2000/svg" xmlns:xlink="http://www.w3.org/1999/xlink" width="1000" zoomAndPan="magnify" viewBox="0 0 750 749.999995" height="1000" preserveAspectRatio="xMidYMid meet" version="1.0"><defs><clipPath id="67d19f2e04"><path d="M 67.769531 37 L 675.269531 37 L 675.269531 727 L 67.769531 727 Z M 67.769531 37 " clip-rule="nonzero"/></clipPath></defs><g clip-path="url(#67d19f2e04)"><path fill="#e44d26" d="M 122.917969 657.816406 L 67.597656 37.546875 L 675.441406 37.546875 L 620.078125 657.730469 L 371.132812 726.6875 Z M 122.917969 657.816406 " fill-opacity="1" fill-rule="nonzero"/></g><path fill="#f16529" d="M 572.660156 618.230469 L 619.992188 88.265625 L 371.519531 88.265625 L 371.519531 673.988281 Z M 572.660156 618.230469 " fill-opacity="1" fill-rule="nonzero"/><path fill="#ebebeb" d="M 371.261719 164.332031 L 180.695312 164.332031 L 201.226562 394.382812 L 371.519531 394.382812 L 371.519531 318.316406 L 270.828125 318.316406 L 263.871094 240.421875 L 371.519531 240.421875 L 371.519531 164.332031 Z M 371.519531 515.632812 L 371.195312 515.71875 L 286.449219 492.847656 L 281.0625 432.179688 L 204.628906 432.179688 L 215.292969 551.621094 L 371.175781 594.691406 L 371.519531 594.585938 Z M 371.519531 515.632812 " fill-opacity="1" fill-rule="nonzero"/><path fill="#ffffff" d="M 371.261719 394.382812 L 464.96875 394.382812 L 456.355469 493.019531 L 371.476562 515.914062 L 371.476562 595.058594 L 527.488281 551.835938 L 548.382812 318.273438 L 371.519531 318.273438 Z M 560.058594 184.75 L 561.867188 164.332031 L 371.21875 164.332031 L 371.21875 240.398438 L 555.019531 240.398438 L 556.527344 223.300781 Z M 560.058594 184.75 " fill-opacity="1" fill-rule="nonzero"/></svg>