<svg xmlns="http://www.w3.org/2000/svg" xmlns:xlink="http://www.w3.org/1999/xlink" width="1000" zoomAndPan="magnify" viewBox="0 0 750 749.999995" height="1000" preserveAspectRatio="xMidYMid meet" version="1.0"><defs><clipPath id="7ec8b45117"><path d="M 13.621094 13.621094 L 56 13.621094 L 56 56 L 13.621094 56 Z M 13.621094 13.621094 " clip-rule="nonzero"/></clipPath><clipPath id="fb847fbb51"><path d="M 688 13.621094 L 730.621094 13.621094 L 730.621094 56 L 688 56 Z M 688 13.621094 " clip-rule="nonzero"/></clipPath><clipPath id="4fd3b2b861"><path d="M 13.621094 688 L 56 688 L 56 730.621094 L 13.621094 730.621094 Z M 13.621094 688 " clip-rule="nonzero"/></clipPath><clipPath id="2f1f051a2c"><path d="M 688 688 L 730.621094 688 L 730.621094 730.621094 L 688 730.621094 Z M 688 688 " clip-rule="nonzero"/></clipPath></defs><path fill="#73137f" d="M 691.984375 716.359375 L 52.25 716.359375 L 52.25 702.855469 L 691.984375 702.855469 Z M 27.875 691.984375 L 27.875 52.25 L 41.378906 52.25 L 41.378906 691.984375 Z M 52.25 27.875 L 691.984375 27.875 L 691.984375 41.378906 L 52.25 41.378906 Z M 716.359375 52.25 L 716.359375 691.984375 L 702.855469 691.984375 L 702.855469 52.25 Z M 716.359375 52.25 " fill-opacity="1" fill-rule="nonzero"/><g clip-path="url(#7ec8b45117)"><path fill="#73137f" d="M 16.992188 13.621094 L 55.621094 13.621094 L 55.621094 55.621094 L 13.621094 55.621094 L 13.621094 13.621094 Z M 48.867188 20.375 L 20.375 20.375 L 20.375 48.867188 L 48.867188 48.867188 Z M 48.867188 20.375 " fill-opacity="1" fill-rule="nonzero"/></g><g clip-path="url(#fb847fbb51)"><path fill="#73137f" d="M 691.984375 13.621094 L 730.613281 13.621094 L 730.613281 55.621094 L 688.613281 55.621094 L 688.613281 13.621094 Z M 723.859375 20.375 L 695.367188 20.375 L 695.367188 48.867188 L 723.859375 48.867188 Z M 723.859375 20.375 " fill-opacity="1" fill-rule="nonzero"/></g><g clip-path="url(#4fd3b2b861)"><path fill="#73137f" d="M 16.992188 688.613281 L 55.621094 688.613281 L 55.621094 730.613281 L 13.621094 730.613281 L 13.621094 688.613281 Z M 48.867188 695.367188 L 20.375 695.367188 L 20.375 723.859375 L 48.867188 723.859375 Z M 48.867188 695.367188 " fill-opacity="1" fill-rule="nonzero"/></g><g clip-path="url(#2f1f051a2c)"><path fill="#73137f" d="M 691.984375 688.613281 L 730.613281 688.613281 L 730.613281 730.613281 L 688.613281 730.613281 L 688.613281 688.613281 Z M 723.859375 695.367188 L 695.367188 695.367188 L 695.367188 723.859375 L 723.859375 723.859375 Z M 723.859375 695.367188 " fill-opacity="1" fill-rule="nonzero"/></g><path fill="#d1e9f6" d="M 395.230469 159.816406 C 434.320312 224.007812 494.484375 321.652344 494.484375 321.652344 L 417.617188 499.257812 L 417.570312 505.207031 L 323.53125 504.402344 L 323.578125 498.453125 L 249.75 319.5625 C 249.75 319.5625 311.5625 222.953125 351.75 159.441406 L 365.878906 159.566406 L 364.703125 296.667969 C 344.839844 300.082031 329.660156 317.308594 329.480469 338.167969 C 329.277344 361.625 348.132812 380.808594 371.601562 381.011719 C 395.0625 381.21875 414.246094 362.363281 414.449219 338.890625 C 414.628906 318.035156 399.734375 300.546875 379.9375 296.792969 L 381.113281 159.691406 L 395.242188 159.816406 Z M 395.230469 159.816406 " fill-opacity="1" fill-rule="evenodd"/><path fill="#73137f" d="M 397.140625 158.652344 C 436.5625 223.363281 496.214844 320.207031 496.382812 320.488281 L 496.996094 321.484375 L 419.84375 499.742188 L 419.777344 507.492188 C 386.941406 507.210938 354.09375 506.9375 321.257812 506.644531 L 321.324219 498.90625 L 247.226562 319.347656 L 247.859375 318.363281 C 248.042969 318.078125 309.402344 222.183594 349.851562 158.253906 L 350.519531 157.203125 L 368.128906 157.351562 C 367.722656 204.425781 367.328125 251.492188 366.917969 298.566406 L 365.074219 298.882812 C 355.597656 300.511719 347.238281 305.46875 341.265625 312.515625 C 335.386719 319.4375 331.8125 328.382812 331.71875 338.179688 L 331.730469 338.179688 L 331.71875 338.203125 C 331.628906 349.308594 336.039062 359.410156 343.269531 366.75 C 350.484375 374.089844 360.496094 378.683594 371.601562 378.785156 L 371.601562 378.773438 L 371.625 378.785156 C 382.730469 378.875 392.832031 374.464844 400.175781 367.238281 C 407.515625 360.019531 412.105469 350 412.207031 338.890625 C 412.289062 329.097656 408.871094 320.082031 403.101562 313.058594 C 397.246094 305.910156 388.976562 300.808594 379.519531 299.019531 L 377.675781 298.667969 C 378.082031 251.59375 378.480469 204.527344 378.886719 157.453125 L 396.496094 157.601562 L 397.140625 158.664062 Z M 491.949219 321.84375 C 485.59375 311.53125 430.519531 222.070312 393.953125 162.054688 L 383.320312 161.964844 L 382.179688 294.980469 C 391.917969 297.265625 400.421875 302.71875 406.554688 310.195312 C 412.957031 318.011719 416.765625 328.019531 416.675781 338.914062 C 416.574219 351.265625 411.472656 362.40625 403.308594 370.425781 C 395.152344 378.445312 383.929688 383.355469 371.589844 383.253906 L 371.589844 383.265625 L 371.570312 383.253906 C 359.21875 383.152344 348.074219 378.050781 340.054688 369.882812 C 332.035156 361.726562 327.128906 350.507812 327.230469 338.167969 L 327.21875 338.167969 L 327.230469 338.144531 C 327.320312 327.253906 331.300781 317.296875 337.828125 309.605469 C 344.082031 302.234375 352.679688 296.925781 362.464844 294.8125 L 363.605469 161.796875 L 352.972656 161.707031 C 315.332031 221.179688 258.777344 309.605469 252.261719 319.796875 L 325.636719 497.617188 L 325.804688 498.488281 L 325.769531 502.199219 L 415.320312 502.96875 L 415.351562 499.257812 L 415.535156 498.386719 L 491.9375 321.855469 Z M 491.949219 321.84375 " fill-opacity="1" fill-rule="nonzero"/><path fill="#ed6696" d="M 313.011719 506.542969 C 332.160156 506.699219 351.332031 506.871094 370.484375 507.027344 C 389.644531 507.1875 408.828125 507.355469 428.011719 507.515625 C 432.25 520.386719 436.515625 533.28125 440.78125 546.152344 C 445.042969 559.023438 449.285156 571.894531 453.539062 584.769531 C 425.632812 584.53125 397.71875 584.292969 369.839844 584.054688 C 341.957031 583.816406 314.050781 583.582031 286.171875 583.34375 C 290.648438 570.550781 295.117188 557.746094 299.585938 544.953125 C 304.054688 532.160156 308.542969 519.347656 313 506.542969 Z M 313.011719 506.542969 " fill-opacity="1" fill-rule="evenodd"/><path fill="#73137f" d="M 313.035156 504.300781 L 429.648438 505.296875 L 430.148438 506.824219 C 432.273438 513.261719 434.402344 519.707031 436.527344 526.144531 L 442.917969 545.460938 C 447.273438 558.59375 448.71875 562.996094 450.121094 567.238281 C 451.976562 572.847656 453.832031 578.46875 455.6875 584.078125 L 456.671875 587.054688 C 398.792969 586.566406 340.914062 586.070312 283.039062 585.570312 L 284.066406 582.621094 C 287.914062 571.625 291.757812 560.628906 295.59375 549.636719 L 301.835938 531.777344 C 304.855469 523.125 307.886719 514.472656 310.898438 505.816406 L 311.429688 504.300781 L 313.035156 504.3125 Z M 370.472656 509.277344 L 314.605469 508.804688 C 311.769531 516.949219 308.917969 525.101562 306.066406 533.246094 L 299.824219 551.105469 C 296.328125 561.117188 292.832031 571.128906 289.328125 581.136719 L 450.417969 582.515625 L 438.652344 546.875 C 434.039062 532.976562 433.632812 531.742188 432.25 527.558594 C 430.292969 521.628906 428.328125 515.691406 426.371094 509.765625 L 370.460938 509.289062 Z M 370.472656 509.277344 " fill-opacity="1" fill-rule="nonzero"/><path fill="#ed6696" d="M 313.65625 492.0625 L 427.636719 493.035156 C 430.960938 493.070312 433.652344 495.808594 433.632812 499.132812 L 433.53125 511.574219 C 433.507812 514.902344 430.757812 517.59375 427.433594 517.570312 L 313.453125 516.597656 C 310.128906 516.5625 307.433594 513.824219 307.457031 510.5 L 307.558594 498.058594 C 307.59375 494.734375 310.332031 492.042969 313.65625 492.0625 Z M 313.65625 492.0625 " fill-opacity="1" fill-rule="evenodd"/><path fill="#73137f" d="M 313.667969 489.824219 L 427.648438 490.796875 C 429.933594 490.820312 432.003906 491.769531 433.484375 493.273438 C 434.964844 494.789062 435.882812 496.871094 435.859375 499.144531 L 435.757812 511.585938 C 435.734375 513.871094 434.785156 515.941406 433.28125 517.421875 C 431.765625 518.90625 429.683594 519.820312 427.410156 519.796875 L 313.429688 518.824219 C 311.144531 518.804688 309.074219 517.851562 307.59375 516.347656 C 306.113281 514.832031 305.195312 512.75 305.207031 510.476562 L 305.308594 498.035156 C 305.332031 495.75 306.28125 493.679688 307.785156 492.199219 C 309.300781 490.71875 311.382812 489.800781 313.65625 489.824219 Z M 427.601562 495.277344 L 313.621094 494.304688 C 312.582031 494.292969 311.621094 494.710938 310.929688 495.402344 C 310.230469 496.089844 309.800781 497.03125 309.789062 498.070312 L 309.6875 510.511719 C 309.675781 511.550781 310.09375 512.515625 310.785156 513.203125 C 311.472656 513.90625 312.414062 514.335938 313.453125 514.347656 L 427.433594 515.320312 C 428.472656 515.332031 429.433594 514.910156 430.125 514.222656 C 430.828125 513.53125 431.257812 512.59375 431.269531 511.550781 L 431.371094 499.109375 C 431.378906 498.070312 430.960938 497.109375 430.273438 496.417969 C 429.582031 495.71875 428.644531 495.289062 427.601562 495.277344 Z M 427.601562 495.277344 " fill-opacity="1" fill-rule="nonzero"/></svg>