<svg xmlns="http://www.w3.org/2000/svg" xmlns:xlink="http://www.w3.org/1999/xlink" width="1000" zoomAndPan="magnify" viewBox="0 0 750 749.999995" height="1000" preserveAspectRatio="xMidYMid meet" version="1.0"><defs><clipPath id="85116dd395"><path d="M 20.304688 67 L 729.804688 67 L 729.804688 683 L 20.304688 683 Z M 20.304688 67 " clip-rule="nonzero"/></clipPath></defs><path fill="#53c1de" d="M 438.414062 374.359375 C 438.414062 340.449219 410.050781 312.953125 375.054688 312.953125 C 340.070312 312.953125 311.699219 340.449219 311.699219 374.359375 C 311.699219 408.277344 340.070312 435.769531 375.054688 435.769531 C 410.050781 435.769531 438.414062 408.277344 438.414062 374.359375 Z M 438.414062 374.359375 " fill-opacity="1" fill-rule="nonzero"/><g clip-path="url(#85116dd395)"><path fill="#53c1de" d="M 580.820312 260.355469 C 594.199219 207.660156 611.015625 109.945312 551.730469 76.816406 C 492.722656 43.828125 415.933594 107.035156 375.386719 144.972656 C 334.957031 107.414062 256.007812 44.476562 196.773438 77.710938 C 137.789062 110.808594 155.976562 206.90625 169.652344 259.929688 C 114.628906 275.078125 20.304688 307.703125 20.304688 374.359375 C 20.304688 440.828125 114.53125 476.324219 169.230469 491.457031 C 155.503906 544.773438 138.222656 639.5 197.285156 672.523438 C 256.742188 705.75 335.441406 644.3125 376.367188 605.960938 C 417.175781 644.121094 493.226562 705.960938 552.246094 672.847656 C 611.453125 639.628906 596.03125 543.21875 582.355469 489.886719 C 635.378906 474.71875 729.804688 440 729.804688 374.359375 C 729.804688 308.34375 634.976562 275.453125 580.820312 260.355469 Z M 574.101562 461.625 C 565.121094 434.070312 553 404.773438 538.171875 374.507812 C 552.324219 344.953125 563.976562 316.035156 572.703125 288.660156 C 612.40625 299.816406 699.5 325.3125 699.5 374.359375 C 699.5 423.867188 615.921875 449.605469 574.101562 461.625 Z M 537.058594 647.421875 C 493.023438 672.128906 427.609375 612.992188 397.472656 584.886719 C 417.464844 563.691406 437.445312 539.054688 456.945312 511.695312 C 491.246094 508.746094 523.648438 503.921875 553.035156 497.339844 C 562.664062 535.0625 581.289062 622.605469 537.058594 647.421875 Z M 212.429688 647.070312 C 168.390625 622.457031 188.519531 537.929688 198.617188 498.652344 C 227.679688 504.886719 259.847656 509.367188 294.230469 512.070312 C 313.855469 538.839844 334.417969 563.449219 355.132812 585 C 329.539062 609 256.675781 671.796875 212.429688 647.070312 Z M 50.613281 374.359375 C 50.613281 324.667969 137.1875 299.355469 177.792969 288.226562 C 186.671875 316.214844 198.320312 345.480469 212.375 375.078125 C 198.136719 405.109375 186.324219 434.839844 177.363281 463.160156 C 138.644531 452.417969 50.613281 424.082031 50.613281 374.359375 Z M 211.960938 103.136719 C 256.179688 78.328125 324.792969 138.746094 354.148438 165.941406 C 333.535156 187.394531 313.167969 211.816406 293.707031 238.4375 C 260.339844 241.433594 228.398438 246.246094 199.03125 252.695312 C 188.015625 209.929688 167.785156 127.917969 211.960938 103.136719 Z M 478.625 270.367188 C 501.265625 273.132812 522.953125 276.816406 543.320312 281.324219 C 537.207031 300.316406 529.585938 320.179688 520.609375 340.539062 C 507.601562 316.613281 493.636719 293.167969 478.625 270.367188 Z M 375.394531 186.933594 C 389.375 201.613281 403.375 218.003906 417.148438 235.789062 C 389.210938 234.507812 361.226562 234.5 333.289062 235.769531 C 347.078125 218.152344 361.199219 201.785156 375.394531 186.933594 Z M 229.761719 340.515625 C 220.9375 320.226562 213.382812 300.28125 207.21875 281.015625 C 227.460938 276.625 249.050781 273.035156 271.539062 270.3125 C 256.488281 293.0625 242.546875 316.5 229.761719 340.515625 Z M 272.1875 480.503906 C 248.953125 477.992188 227.039062 474.585938 206.800781 470.316406 C 213.0625 450.710938 220.78125 430.332031 229.796875 409.605469 C 242.757812 433.875 256.914062 457.539062 272.1875 480.503906 Z M 376.234375 563.859375 C 361.871094 548.835938 347.539062 532.21875 333.546875 514.347656 C 361.640625 515.414062 389.792969 515.417969 417.886719 514.203125 C 404.070312 532.402344 390.121094 549.042969 376.234375 563.859375 Z M 520.898438 408.554688 C 530.382812 429.503906 538.375 449.773438 544.726562 469.042969 C 524.152344 473.59375 501.945312 477.261719 478.542969 479.980469 C 493.660156 456.746094 507.847656 432.9375 520.898438 408.554688 Z M 440.03125 483.542969 C 397.054688 486.519531 353.808594 486.484375 310.820312 483.785156 C 286.390625 449.199219 264.644531 412.828125 245.875 375.066406 C 264.554688 337.386719 286.140625 301.082031 310.453125 266.550781 C 353.476562 263.402344 396.761719 263.390625 439.785156 266.570312 C 463.886719 301.101562 485.441406 337.308594 504.558594 374.648438 C 485.667969 412.3125 463.96875 448.6875 440.03125 483.542969 Z M 536.59375 102.261719 C 580.824219 126.992188 561.136719 214.8125 551.472656 253 C 522.039062 246.417969 490.074219 241.519531 456.609375 238.472656 C 437.113281 211.566406 416.914062 187.101562 396.632812 165.925781 C 426.363281 138.144531 492.789062 77.777344 536.59375 102.261719 Z M 536.59375 102.261719 " fill-opacity="1" fill-rule="evenodd"/></g></svg>