<svg xmlns="http://www.w3.org/2000/svg" xmlns:xlink="http://www.w3.org/1999/xlink" width="1000" zoomAndPan="magnify" viewBox="0 0 750 749.999995" height="1000" preserveAspectRatio="xMidYMid meet" version="1.0"><defs><clipPath id="ce4b28f37d"><path d="M 20.140625 20.140625 L 727.390625 20.140625 L 727.390625 727.390625 L 20.140625 727.390625 Z M 20.140625 20.140625 " clip-rule="nonzero"/></clipPath></defs><g clip-path="url(#ce4b28f37d)"><path fill="#007acc" d="M 20.140625 727.390625 L 727.390625 727.390625 L 727.390625 20.140625 L 20.140625 20.140625 Z M 20.140625 727.390625 " fill-opacity="1" fill-rule="nonzero"/></g><path fill="#ffffff" d="M 176.511719 376.089844 L 176.289062 405.070312 L 268.34375 405.070312 L 268.34375 666.640625 L 333.457031 666.640625 L 333.457031 405.070312 L 425.511719 405.070312 L 425.511719 376.667969 C 425.511719 360.949219 425.175781 347.796875 424.726562 347.464844 C 424.390625 347.023438 368.371094 346.804688 300.445312 346.914062 L 176.84375 347.246094 Z M 176.511719 376.089844 " fill-opacity="1" fill-rule="nonzero"/><path fill="#ffffff" d="M 590.832031 346.445312 C 608.789062 350.921875 622.492188 358.902344 635.0625 371.917969 C 641.554688 378.878906 651.226562 391.558594 652 394.597656 C 652.21875 395.511719 621.46875 416.148438 602.824219 427.722656 C 602.160156 428.164062 599.480469 425.238281 596.441406 420.761719 C 587.351562 407.5 577.792969 401.78125 563.207031 400.785156 C 541.765625 399.324219 527.953125 410.539062 528.0625 429.296875 C 528.0625 434.796875 528.863281 438.054688 531.101562 442.53125 C 535.828125 452.3125 544.585938 458.140625 572.074219 470.046875 C 622.714844 491.816406 644.375 506.183594 657.855469 526.628906 C 672.882812 549.417969 676.253906 585.777344 666.03125 612.824219 C 654.816406 642.246094 626.96875 662.21875 587.792969 668.851562 C 575.664062 670.976562 546.933594 670.648438 533.894531 668.296875 C 505.492188 663.242188 478.554688 649.207031 461.953125 630.808594 C 455.433594 623.625 442.753906 604.867188 443.527344 603.511719 C 443.882812 603.070312 446.785156 601.277344 450.046875 599.371094 C 453.195312 597.574219 465.101562 590.722656 476.320312 584.203125 L 496.625 572.433594 L 500.90625 578.703125 C 506.847656 587.792969 519.886719 600.253906 527.734375 604.425781 C 550.304688 616.304688 581.273438 614.621094 596.550781 600.945312 C 603.070312 594.976562 605.75 588.816406 605.75 579.726562 C 605.75 571.519531 604.757812 567.929688 600.472656 561.769531 C 594.976562 553.894531 583.761719 547.265625 551.878906 533.480469 C 515.382812 517.757812 499.664062 507.980469 485.296875 492.480469 C 476.980469 483.5 469.136719 469.136719 465.875 457.117188 C 463.167969 447.144531 462.503906 422.113281 464.632812 412.003906 C 472.175781 376.75 498.78125 352.164062 537.152344 344.871094 C 549.613281 342.519531 578.59375 343.40625 590.832031 346.445312 Z M 590.832031 346.445312 " fill-opacity="1" fill-rule="nonzero"/></svg>