<svg xmlns="http://www.w3.org/2000/svg" xmlns:xlink="http://www.w3.org/1999/xlink" width="1000" zoomAndPan="magnify" viewBox="0 0 750 749.999995" height="1000" preserveAspectRatio="xMidYMid meet" version="1.0"><defs><clipPath id="840572691e"><path d="M 684 352 L 725.613281 352 L 725.613281 395 L 684 395 Z M 684 352 " clip-rule="nonzero"/></clipPath><clipPath id="ef1f998da9"><path d="M 18.363281 352 L 60 352 L 60 395 L 18.363281 395 Z M 18.363281 352 " clip-rule="nonzero"/></clipPath><clipPath id="d60649fe66"><path d="M 320 461 L 424 461 L 424 510.707031 L 320 510.707031 Z M 320 461 " clip-rule="nonzero"/></clipPath></defs><path fill="#73137f" d="M 52.167969 353.429688 C 158.5625 263.773438 265.171875 219.855469 371.972656 220.347656 C 478.761719 220.84375 585.351562 265.726562 691.753906 353.679688 L 683.277344 363.921875 C 579.277344 277.957031 475.488281 234.089844 371.925781 233.605469 C 268.375 233.128906 164.652344 276.015625 60.753906 363.566406 L 52.171875 353.429688 Z M 52.167969 353.429688 " fill-opacity="1" fill-rule="nonzero"/><g clip-path="url(#840572691e)"><path fill="#73137f" d="M 687.515625 352.855469 L 725.613281 352.855469 L 725.613281 394.261719 L 684.183594 394.261719 L 684.183594 352.855469 Z M 718.953125 359.511719 L 690.839844 359.511719 L 690.839844 387.609375 L 718.953125 387.609375 Z M 718.953125 359.511719 " fill-opacity="1" fill-rule="nonzero"/></g><g clip-path="url(#ef1f998da9)"><path fill="#73137f" d="M 21.691406 352.855469 L 59.789062 352.855469 L 59.789062 394.261719 L 18.363281 394.261719 L 18.363281 352.855469 Z M 53.128906 359.511719 L 25.015625 359.511719 L 25.015625 387.609375 L 53.128906 387.609375 Z M 53.128906 359.511719 " fill-opacity="1" fill-rule="nonzero"/></g><path fill="#d1e9f6" d="M 384.605469 262.136719 C 407.617188 299.179688 443.015625 355.535156 443.015625 355.535156 L 399.277344 458.949219 L 399.277344 462.402344 L 344.691406 462.402344 L 344.691406 458.949219 L 300.953125 355.535156 C 300.953125 355.535156 336.351562 299.179688 359.363281 262.136719 L 367.558594 262.136719 L 367.558594 341.679688 C 356.050781 343.757812 347.320312 353.824219 347.320312 365.929688 C 347.320312 379.542969 358.363281 390.578125 371.984375 390.578125 C 385.601562 390.578125 396.644531 379.542969 396.644531 365.929688 C 396.644531 353.824219 387.914062 343.757812 376.40625 341.679688 L 376.40625 262.136719 Z M 384.605469 262.136719 " fill-opacity="1" fill-rule="evenodd"/><path fill="#73137f" d="M 386.488281 260.96875 C 409.769531 298.445312 444.789062 354.195312 444.890625 354.359375 L 445.5 355.332031 L 401.5 459.382812 L 401.5 464.625 L 342.472656 464.625 L 342.472656 459.382812 L 298.46875 355.332031 L 299.078125 354.359375 C 299.179688 354.199219 334.203125 298.445312 357.480469 260.96875 L 358.132812 259.921875 L 369.78125 259.921875 L 369.78125 343.523438 L 367.949219 343.855469 C 362.671875 344.808594 358.035156 347.609375 354.734375 351.566406 C 351.492188 355.449219 349.542969 360.457031 349.542969 365.929688 C 349.542969 372.125 352.054688 377.730469 356.113281 381.789062 C 360.171875 385.847656 365.785156 388.359375 371.976562 388.359375 C 378.175781 388.359375 383.785156 385.847656 387.84375 381.789062 C 391.902344 377.734375 394.414062 372.125 394.414062 365.929688 C 394.414062 360.457031 392.464844 355.449219 389.222656 351.566406 C 385.921875 347.609375 381.285156 344.808594 376.007812 343.855469 L 374.175781 343.523438 L 374.175781 259.921875 L 385.824219 259.921875 L 386.472656 260.96875 Z M 440.535156 355.738281 C 435.789062 348.183594 404.40625 298.191406 383.378906 264.359375 L 378.628906 264.359375 L 378.628906 339.902344 C 384.195312 341.316406 389.066406 344.464844 392.636719 348.738281 C 396.527344 353.402344 398.867188 359.398438 398.867188 365.929688 C 398.867188 373.347656 395.859375 380.0625 390.992188 384.925781 C 386.132812 389.785156 379.410156 392.796875 371.988281 392.796875 C 364.566406 392.796875 357.847656 389.789062 352.980469 384.925781 C 348.117188 380.066406 345.105469 373.347656 345.105469 365.929688 C 345.105469 359.398438 347.445312 353.402344 351.339844 348.738281 C 354.90625 344.464844 359.777344 341.316406 365.34375 339.902344 L 365.34375 264.359375 L 360.59375 264.359375 C 339.570312 298.191406 308.183594 348.183594 303.441406 355.738281 L 346.730469 458.097656 L 346.914062 458.953125 L 346.914062 460.1875 L 397.0625 460.1875 L 397.0625 458.953125 L 397.246094 458.097656 L 440.539062 355.738281 Z M 440.535156 355.738281 " fill-opacity="1" fill-rule="nonzero"/><path fill="#ed6696" d="M 338.605469 463.691406 C 349.722656 463.691406 360.855469 463.691406 371.964844 463.691406 C 383.089844 463.691406 394.222656 463.691406 405.355469 463.691406 C 407.882812 471.144531 410.421875 478.597656 412.960938 486.042969 C 415.5 493.484375 418.027344 500.9375 420.558594 508.386719 C 404.363281 508.386719 388.15625 508.386719 371.972656 508.386719 C 355.789062 508.386719 339.59375 508.386719 323.410156 508.386719 C 325.945312 500.941406 328.476562 493.492188 331.007812 486.042969 C 333.539062 478.601562 336.078125 471.144531 338.605469 463.691406 Z M 338.605469 463.691406 " fill-opacity="1" fill-rule="evenodd"/><g clip-path="url(#d60649fe66)"><path fill="#73137f" d="M 338.605469 461.472656 L 406.941406 461.472656 L 407.453125 462.980469 C 408.714844 466.707031 409.984375 470.433594 411.253906 474.160156 L 415.058594 485.332031 C 416.488281 489.515625 417.914062 493.703125 419.332031 497.894531 L 423.65625 510.601562 L 320.308594 510.601562 C 324.019531 499.714844 327.71875 488.824219 331.421875 477.933594 C 333.117188 472.953125 334.816406 467.96875 336.503906 462.984375 L 337.015625 461.476562 L 338.601562 461.476562 Z M 371.964844 465.910156 L 340.1875 465.910156 C 338.667969 470.390625 337.144531 474.875 335.617188 479.351562 L 326.5 506.167969 L 417.464844 506.167969 L 415.136719 499.316406 C 413.710938 495.132812 412.292969 490.941406 410.863281 486.753906 L 407.054688 475.582031 L 403.769531 465.910156 L 371.960938 465.910156 Z M 371.964844 465.910156 " fill-opacity="1" fill-rule="nonzero"/></g><path fill="#ed6696" d="M 338.90625 455.285156 L 405.066406 455.285156 C 406.996094 455.285156 408.578125 456.863281 408.578125 458.796875 L 408.578125 466.015625 C 408.578125 467.945312 406.996094 469.523438 405.066406 469.523438 L 338.90625 469.523438 C 336.976562 469.523438 335.398438 467.945312 335.398438 466.015625 L 335.398438 458.796875 C 335.398438 456.863281 336.976562 455.285156 338.90625 455.285156 Z M 338.90625 455.285156 " fill-opacity="1" fill-rule="evenodd"/><path fill="#73137f" d="M 338.90625 453.066406 L 405.066406 453.066406 C 406.644531 453.066406 408.078125 453.714844 409.113281 454.746094 C 410.152344 455.785156 410.792969 457.21875 410.792969 458.789062 L 410.792969 466.011719 C 410.792969 467.589844 410.148438 469.023438 409.113281 470.054688 C 408.074219 471.09375 406.640625 471.734375 405.066406 471.734375 L 338.90625 471.734375 C 337.328125 471.734375 335.894531 471.089844 334.859375 470.054688 C 333.820312 469.019531 333.179688 467.585938 333.179688 466.011719 L 333.179688 458.789062 C 333.179688 457.210938 333.828125 455.78125 334.859375 454.746094 C 335.898438 453.707031 337.332031 453.066406 338.90625 453.066406 Z M 405.066406 457.503906 L 338.90625 457.503906 C 338.554688 457.503906 338.234375 457.652344 337.996094 457.886719 C 337.761719 458.121094 337.617188 458.445312 337.617188 458.796875 L 337.617188 466.015625 C 337.617188 466.367188 337.761719 466.691406 337.996094 466.925781 C 338.234375 467.160156 338.554688 467.304688 338.90625 467.304688 L 405.066406 467.304688 C 405.417969 467.304688 405.742188 467.160156 405.976562 466.925781 C 406.210938 466.691406 406.355469 466.367188 406.355469 466.015625 L 406.355469 458.796875 C 406.355469 458.445312 406.210938 458.121094 405.976562 457.886719 C 405.742188 457.652344 405.417969 457.503906 405.066406 457.503906 Z M 405.066406 457.503906 " fill-opacity="1" fill-rule="nonzero"/></svg>